# xmcd
#
# Track frame offsets:
# 150
# 11956
# 30914
# 46363
# 65400
# 81050
# 93329
# 114937
# 132040
# 159335
# 181394
# 197513
# 217072
# 232820
# 245210
# 265643
# 288277
#
# Disc length: 4112 seconds
#
#
# Revision: 0
# Processed by: cddbd v1.5.1PL2 Copyright (c) Steve Scherf et al.
# Submitted via: FreeRIP 2.945 
#
DISCID=dd100e11
DTITLE=Various Artist - Bluesfest 2006 - Disc 1
DYEAR=2006
DGENRE=Various
TTITLE0=Bernard Fanning - Songbird
TTITLE1=Mia Dyson - I Meant Something To You Once
TTITLE2=Pete Murray - See The Sun
TTITLE3=Xavier Rudd - Let Me Be
TTITLE4=David Gray - The One I Love
TTITLE5=Martha Wainwright - G.P.T.
TTITLE6=Beth Orton - She Cries Your Name
TTITLE7=India.Arie - I Am Not My Hair
TTITLE8=The Cat Empire - Sol Y Sombra
TTITLE9=Hothouse Flowers - I Can See Clearly Now
TTITLE10=Damian Marley - Welcome To Jamrock (Clean)
TTITLE11=The Blind Boys Of Alabama - Just Wanna See His Face
TTITLE12=Keb' Mo' - Kindhearted Woman Blues
TTITLE13=Ash Grunwald - Whispering Voice
TTITLE14=Eddi Reader - Patience of Angels
TTITLE15=Richard Clapton - Blue Bay Blues (Acoustic Version)
TTITLE16=Jimmy Barnes with Troy Cassar-Daley featuring Bella - Bird On A Wire
EXTD=
EXTT0=
EXTT1=
EXTT2=
EXTT3=
EXTT4=
EXTT5=
EXTT6=
EXTT7=
EXTT8=
EXTT9=
EXTT10=
EXTT11=
EXTT12=
EXTT13=
EXTT14=
EXTT15=
EXTT16=
PLAYORDER=
